<svg width="290" height="68" viewBox="0 0 290 68" fill="none" xmlns="http://www.w3.org/2000/svg">
<g filter="url(#filter0_d_1_24)">
<path d="M5.2429 2.7727C9.0829 2.1327 13.5629 1.8127 18.6829 1.8127C23.8029 1.8127 27.8829 2.95937 30.9229 5.2527C33.9629 7.4927 35.4829 10.7194 35.4829 14.9327C35.4829 17.866 34.7096 20.346 33.1629 22.3727C31.6696 24.346 29.5096 25.706 26.6829 26.4527V26.9327C30.2029 27.3594 33.0296 28.906 35.1629 31.5727C37.2962 34.2394 38.3629 37.386 38.3629 41.0127C38.3629 46.3994 36.4429 50.6394 32.6029 53.7327C28.8162 56.7727 23.9629 58.2927 18.0429 58.2927C12.1229 58.2927 7.77623 57.6794 5.0029 56.4527L5.2429 2.7727ZM17.4029 53.0927C21.8829 53.0927 25.4296 52.1327 28.0429 50.2127C30.6562 48.2927 31.9629 45.306 31.9629 41.2527C31.9629 37.146 30.8429 34.3194 28.6029 32.7727C26.3629 31.1727 22.9229 30.3727 18.2829 30.3727L11.2429 30.6927V52.6927C12.7362 52.9594 14.7896 53.0927 17.4029 53.0927ZM25.8829 22.9327C28.1229 21.3327 29.2429 18.9327 29.2429 15.7327C29.2429 12.5327 28.3096 10.2927 26.4429 9.0127C24.5762 7.67937 21.8562 7.0127 18.2829 7.0127L11.2429 7.3327V25.7327L17.0029 25.4927C20.6829 25.3327 23.6429 24.4794 25.8829 22.9327Z" fill="black"/>
<path d="M58.9773 45.0127C58.9773 47.8394 58.8173 50.2127 58.4973 52.1327H80.6573L80.4173 57.3327H52.7373L52.9773 2.1327H80.6573L80.4173 7.3327H58.8973C59.0039 8.87937 59.0573 11.2527 59.0573 14.4527L58.9773 24.9327H78.1773V30.1327H58.9773V45.0127Z" fill="black"/>
<path d="M99.0554 45.0127C99.0554 47.8394 98.8954 50.2127 98.5754 52.1327H120.735L120.495 57.3327H92.8154L93.0554 2.1327H120.735L120.495 7.3327H98.9754C99.0821 8.87937 99.1354 11.2527 99.1354 14.4527L99.0554 24.9327H118.255V30.1327H99.0554V45.0127Z" fill="black"/>
<path d="M139.134 45.0127C139.134 47.8394 138.974 50.2127 138.654 52.1327H159.534L159.294 57.3327H132.894L133.134 2.1327L139.134 1.1727V45.0127Z" fill="black"/>
<path d="M178.587 45.0127C178.587 47.8394 178.427 50.2127 178.107 52.1327H200.267L200.027 57.3327H172.347L172.587 2.1327H200.267L200.027 7.3327H178.507C178.613 8.87937 178.667 11.2527 178.667 14.4527L178.587 24.9327H197.787V30.1327H178.587V45.0127Z" fill="black"/>
<path d="M205.385 57.3327L223.305 2.1327L229.305 1.41269L247.305 57.3327H241.145L236.265 41.7327H216.345L211.545 57.3327H205.385ZM226.665 7.8927H226.185C226.131 9.3327 225.865 10.8527 225.385 12.4527L217.945 36.5327H234.665L227.465 12.4527C227.145 11.2794 226.905 10.2394 226.745 9.3327C226.638 8.3727 226.611 7.8927 226.665 7.8927Z" fill="black"/>
<path d="M263.892 7.3327C264.052 10.2127 264.132 12.586 264.132 14.4527L263.972 24.9327H282.372V30.1327H263.972V57.3327H257.972V2.1327H284.612V7.3327H263.892Z" fill="black"/>
</g>
<g filter="url(#filter1_d_1_24)">
<path fill-rule="evenodd" clip-rule="evenodd" d="M4.2467 1.92496L5.07852 1.78632C8.9867 1.13496 13.5239 0.81272 18.6829 0.81272C23.9436 0.81272 28.2565 1.99053 31.5206 4.45097C34.8457 6.90316 36.4829 10.4461 36.4829 14.9327C36.4829 18.05 35.6575 20.7514 33.9593 22.9776C32.8092 24.4968 31.3118 25.6696 29.4951 26.5095C32.057 27.3072 34.2155 28.7877 35.9438 30.948C38.2281 33.8035 39.3629 37.1741 39.3629 41.0127C39.3629 46.6701 37.3297 51.2091 33.2302 54.5115L33.229 54.5125C29.2284 57.7242 24.1391 59.2927 18.0429 59.2927C12.0912 59.2927 7.57024 58.6817 4.59841 57.3673L4 57.1026L4.2467 1.92496ZM27.9088 27.1324C27.5517 27.0586 27.1868 26.9976 26.8141 26.9492C26.7704 26.9435 26.7267 26.938 26.6829 26.9327V26.4527C26.703 26.4474 26.723 26.4421 26.743 26.4367C27.1209 26.3354 27.4867 26.2231 27.8405 26.0997C30.1063 25.3097 31.8805 24.0674 33.1629 22.3727C34.7096 20.3461 35.4829 17.8661 35.4829 14.9327C35.4829 10.7194 33.9629 7.49272 30.9229 5.25272C27.8829 2.95939 23.8029 1.81272 18.6829 1.81272C13.5629 1.81272 9.08291 2.13272 5.24292 2.77272L5.00291 56.4527C7.77625 57.6794 12.1229 58.2927 18.0429 58.2927C23.9629 58.2927 28.8162 56.7727 32.6029 53.7327C36.4429 50.6394 38.3629 46.3994 38.3629 41.0127C38.3629 37.3861 37.2962 34.2394 35.1629 31.5727C33.2832 29.223 30.8651 27.7429 27.9088 27.1324ZM28.0282 33.5911L28.0217 33.5865C26.0356 32.1678 22.8537 31.3753 18.3054 31.3727L12.2429 31.6483V51.8334C13.568 52.0037 15.283 52.0927 17.4029 52.0927C21.7494 52.0927 25.0637 51.1606 27.4508 49.4068C29.7439 47.7222 30.9629 45.0764 30.9629 41.2527C30.9629 37.2992 29.8865 34.8742 28.0347 33.5956L28.0282 33.5911ZM11.2429 52.6927V30.6927L18.2829 30.3727C22.9229 30.3727 26.3629 31.1727 28.6029 32.7727C30.8429 34.3194 31.9629 37.1461 31.9629 41.2527C31.9629 45.3061 30.6562 48.2927 28.0429 50.2127C25.4296 52.1327 21.8829 53.0927 17.4029 53.0927C14.7896 53.0927 12.7362 52.9594 11.2429 52.6927ZM25.8695 9.83202L25.8617 9.82645C24.2389 8.66733 21.7668 8.01554 18.3054 8.01273L12.2429 8.2883V24.6902L16.9595 24.4937C16.9597 24.4937 16.9593 24.4937 16.9595 24.4937C20.5117 24.3391 23.2694 23.5198 25.3081 22.1144C27.2358 20.7345 28.2429 18.6666 28.2429 15.7327C28.2429 12.7153 27.3699 10.8609 25.8774 9.83745L25.8695 9.83202ZM17.0029 25.4927L11.2429 25.7327V7.33272L18.2829 7.01272C21.8563 7.01272 24.5763 7.67939 26.4429 9.01272C28.3096 10.2927 29.2429 12.5327 29.2429 15.7327C29.2429 18.9327 28.1229 21.3327 25.8829 22.9327C23.6429 24.4794 20.6829 25.3327 17.0029 25.4927ZM59.0573 14.4527L58.9773 24.9327H78.1773V30.1327H58.9773V45.0127C58.9773 47.3673 58.8663 49.4073 58.6442 51.1327C58.5997 51.4787 58.5507 51.812 58.4973 52.1327H80.6573L80.4173 57.3327H52.7373L52.9773 2.13272H80.6573L80.4173 7.33272H58.8973C58.9181 7.63457 58.9369 7.9679 58.9536 8.33272C59.0227 9.83723 59.0573 11.8772 59.0573 14.4527ZM59.9547 8.33272H81.3722L81.7045 1.13272H51.9816L51.7329 58.3327H81.3722L81.7045 51.1327H59.6522C59.8706 49.3795 59.9773 47.3372 59.9773 45.0127V31.1327H79.1773V23.9327H59.985L60.0573 14.4604V14.4527C60.0573 11.9011 60.0235 9.85825 59.9547 8.33272ZM99.1354 14.4527L99.0554 24.9327H118.255V30.1327H99.0554V45.0127C99.0554 47.3673 98.9444 49.4073 98.7224 51.1327C98.6778 51.4787 98.6289 51.812 98.5754 52.1327H120.735L120.495 57.3327H92.8154L93.0554 2.13272H120.735L120.495 7.33272H98.9754C98.9962 7.63457 99.015 7.9679 99.0318 8.33272C99.1009 9.83723 99.1354 11.8772 99.1354 14.4527ZM100.033 8.33272H121.45L121.783 1.13272H92.0598L91.8111 58.3327H121.45L121.783 51.1327H99.7303C99.9487 49.3795 100.055 47.3372 100.055 45.0127V31.1327H119.255V23.9327H100.063L100.135 14.4604V14.4527C100.135 11.9011 100.102 9.85825 100.033 8.33272ZM139.134 45.0127C139.134 47.3673 139.023 49.4073 138.8 51.1327C138.756 51.4787 138.707 51.812 138.654 52.1327H159.534L159.294 57.3327H132.894L133.134 2.13272L139.134 1.17272V45.0127ZM139.808 51.1327H160.581L160.248 58.3327H131.889L132.137 1.2794L140.134 0V45.0127C140.134 47.3372 140.027 49.3795 139.808 51.1327ZM178.667 14.4527L178.587 24.9327H197.787V30.1327H178.587V45.0127C178.587 47.3673 178.476 49.4073 178.254 51.1327C178.209 51.4787 178.16 51.812 178.107 52.1327H200.267L200.027 57.3327H172.347L172.587 2.13272H200.267L200.027 7.33272H178.507C178.527 7.63457 178.546 7.9679 178.563 8.33272C178.632 9.83723 178.667 11.8772 178.667 14.4527ZM179.564 8.33272H200.982L201.314 1.13272H171.591L171.342 58.3327H200.982L201.314 51.1327H179.262C179.48 49.3795 179.587 47.3372 179.587 45.0127V31.1327H198.787V23.9327H179.594L179.667 14.4604V14.4527C179.667 11.9011 179.633 9.85825 179.564 8.33272ZM204.009 58.3327L222.551 1.21599L230.004 0.321623L248.677 58.3327H240.41L235.53 42.7327H217.083L212.283 58.3327H204.009ZM216.345 41.7327H236.265L241.145 57.3327H247.305L229.305 1.41271L223.305 2.13272L205.385 57.3327H211.545L216.345 41.7327ZM226.343 12.7401L226.34 12.7479L219.3 35.5327H233.322L226.503 12.7276L226.5 12.7158C226.476 12.6261 226.452 12.5371 226.428 12.4489C226.4 12.5457 226.372 12.6428 226.343 12.7401ZM225.912 10.2951C225.964 10.0126 226.01 9.73281 226.047 9.45578C226.05 9.44035 226.052 9.42492 226.054 9.40951C226.123 8.89442 226.166 8.38882 226.185 7.89272H226.665C226.659 7.89272 226.654 7.89846 226.65 7.90996C226.63 7.96849 226.635 8.17611 226.665 8.53283C226.674 8.63933 226.685 8.75912 226.698 8.8922C226.711 9.02567 226.727 9.17251 226.745 9.33272C226.798 9.63384 226.86 9.94967 226.931 10.2802C227.073 10.9449 227.251 11.6691 227.465 12.4527L234.665 36.5327H217.945L225.385 12.4527C225.606 11.7166 225.781 10.9974 225.912 10.2951ZM264.132 14.4527L263.972 24.9327H282.372V30.1327H263.972V57.3327H257.972V2.13272H284.612V7.33272H263.892C263.911 7.67313 263.928 8.00647 263.945 8.33272C264.069 10.7667 264.132 12.8067 264.132 14.4527ZM264.946 8.33272H285.612V1.13272H256.972V58.3327H264.972V31.1327H283.372V23.9327H264.987L265.132 14.4604V14.4527C265.132 12.7959 265.07 10.7547 264.946 8.33272Z" fill="black"/>
</g>
<defs>
<filter id="filter0_d_1_24" x="1.0029" y="1.1727" width="287.609" height="65.12" filterUnits="userSpaceOnUse" color-interpolation-filters="sRGB">
<feFlood flood-opacity="0" result="BackgroundImageFix"/>
<feColorMatrix in="SourceAlpha" type="matrix" values="0 0 0 0 0 0 0 0 0 0 0 0 0 0 0 0 0 0 127 0" result="hardAlpha"/>
<feOffset dy="4"/>
<feGaussianBlur stdDeviation="2"/>
<feComposite in2="hardAlpha" operator="out"/>
<feColorMatrix type="matrix" values="0 0 0 0 0 0 0 0 0 0 0 0 0 0 0 0 0 0 0.25 0"/>
<feBlend mode="normal" in2="BackgroundImageFix" result="effect1_dropShadow_1_24"/>
<feBlend mode="normal" in="SourceGraphic" in2="effect1_dropShadow_1_24" result="shape"/>
</filter>
<filter id="filter1_d_1_24" x="0" y="0" width="289.612" height="67.2927" filterUnits="userSpaceOnUse" color-interpolation-filters="sRGB">
<feFlood flood-opacity="0" result="BackgroundImageFix"/>
<feColorMatrix in="SourceAlpha" type="matrix" values="0 0 0 0 0 0 0 0 0 0 0 0 0 0 0 0 0 0 127 0" result="hardAlpha"/>
<feOffset dy="4"/>
<feGaussianBlur stdDeviation="2"/>
<feComposite in2="hardAlpha" operator="out"/>
<feColorMatrix type="matrix" values="0 0 0 0 0 0 0 0 0 0 0 0 0 0 0 0 0 0 0.25 0"/>
<feBlend mode="normal" in2="BackgroundImageFix" result="effect1_dropShadow_1_24"/>
<feBlend mode="normal" in="SourceGraphic" in2="effect1_dropShadow_1_24" result="shape"/>
</filter>
</defs>
</svg>
